<svg xmlns="http://www.w3.org/2000/svg" viewBox="0 0 23.665 19.543">
    <defs>
        <style>
            .cls-1{fill:#565f73}
        </style>
    </defs>
    <g id="Group_3214" data-name="Group 3214" transform="translate(.035 .047)">
        <g id="Group_3203" data-name="Group 3203" transform="translate(-.036 -.047)">
            <path id="Path_895" d="M.461 10.1a.491.491 0 0 1-.475-.344A.5.5 0 0 1 .2 9.18L15.624.026a.47.47 0 0 1 .442-.033 12.022 12.022 0 0 1 7.221 7.745.474.474 0 0 1-.082.393.5.5 0 0 1-.36.2L.494 10.1zm15.458-9.091L2.525 8.95l19.633-1.539a11.471 11.471 0 0 0-6.239-6.402z" class="cls-1" data-name="Path 895" transform="translate(.036 .047)"/>
        </g>
        <g id="Group_3204" data-name="Group 3204" transform="translate(-.03 7.37)">
            <path id="Path_896" d="M.491 57.373a.457.457 0 0 1-.327-.131.526.526 0 0 1-.164-.36v-9.4a.482.482 0 0 1 .491-.491.482.482 0 0 1 .491.491v8.859l21.418-1.67a33.677 33.677 0 0 0-.049-8.842.491.491 0 1 1 .966-.18 35.859 35.859 0 0 1 0 9.563.488.488 0 0 1-.442.426L.524 57.373z" class="cls-1" data-name="Path 896" transform="translate(0 -45.247)"/>
        </g>
        <g id="Group_3205" data-name="Group 3205" transform="translate(2.753 9.867)">
            <path id="Path_897" d="M20.368 63.737a2.547 2.547 0 0 1-1.67-.671 1.567 1.567 0 0 0-1.179-.458.5.5 0 0 1-.519-.459.484.484 0 0 1 .458-.524 2.575 2.575 0 0 1 1.85.655 1.542 1.542 0 0 0 1.179.458 1.521 1.521 0 0 0 1.113-.606 2.394 2.394 0 0 1 1.752-.884 2.506 2.506 0 0 1 1.85.655 1.542 1.542 0 0 0 1.179.458 1.521 1.521 0 0 0 1.113-.606 2.394 2.394 0 0 1 1.752-.884 2.506 2.506 0 0 1 1.85.655 1.542 1.542 0 0 0 1.179.458 1.521 1.521 0 0 0 1.113-.606 2.394 2.394 0 0 1 1.752-.884.492.492 0 1 1 .065.982 1.521 1.521 0 0 0-1.113.606 2.394 2.394 0 0 1-1.752.884 2.506 2.506 0 0 1-1.85-.655 1.567 1.567 0 0 0-1.179-.458 1.521 1.521 0 0 0-1.113.606 2.394 2.394 0 0 1-1.752.884 2.575 2.575 0 0 1-1.85-.655 1.542 1.542 0 0 0-1.179-.458 1.521 1.521 0 0 0-1.113.606 2.394 2.394 0 0 1-1.752.884.734.734 0 0 1-.184.017z" class="cls-1" data-name="Path 897" transform="translate(-16.994 -60.494)"/>
        </g>
        <g id="Group_3206" data-name="Group 3206" transform="translate(2.917 13.534)">
            <path id="Path_898" d="M21.368 86.138a2.547 2.547 0 0 1-1.67-.671 1.542 1.542 0 0 0-1.179-.458.5.5 0 0 1-.519-.46.484.484 0 0 1 .458-.524 2.506 2.506 0 0 1 1.85.655 1.542 1.542 0 0 0 1.179.458 1.521 1.521 0 0 0 1.113-.606 2.394 2.394 0 0 1 1.752-.884 2.506 2.506 0 0 1 1.85.655 1.542 1.542 0 0 0 1.179.458 1.521 1.521 0 0 0 1.113-.606 2.394 2.394 0 0 1 1.752-.884 2.506 2.506 0 0 1 1.85.655 1.542 1.542 0 0 0 1.179.458 1.521 1.521 0 0 0 1.113-.606 2.394 2.394 0 0 1 1.752-.884.5.5 0 0 1 .524.458.484.484 0 0 1-.458.524 1.521 1.521 0 0 0-1.113.606 2.394 2.394 0 0 1-1.752.884 2.506 2.506 0 0 1-1.85-.655 1.542 1.542 0 0 0-1.179-.458 1.521 1.521 0 0 0-1.113.606 2.394 2.394 0 0 1-1.752.884 2.506 2.506 0 0 1-1.85-.655 1.542 1.542 0 0 0-1.179-.458 1.521 1.521 0 0 0-1.113.606 2.394 2.394 0 0 1-1.752.884.734.734 0 0 1-.185.018z" class="cls-1" data-name="Path 898" transform="translate(-17.994 -82.895)"/>
        </g>
        <g id="Group_3207" data-name="Group 3207" transform="translate(13.348 5.117)">
            <path id="Path_899" d="M83.941 32.226c.016.442-.458.819-1.081.851s-1.13-.295-1.163-.737c-.016-.442.458-.819 1.081-.851s1.13.311 1.163.737z" class="cls-1" data-name="Path 899" transform="translate(-81.697 -31.487)"/>
        </g>
        <g id="Group_3208" data-name="Group 3208" transform="translate(18.506 5.362)">
            <path id="Path_900" d="M115.441 33.726c.016.442-.458.819-1.081.851s-1.13-.295-1.163-.737c-.016-.442.458-.819 1.081-.851s1.13.311 1.163.737z" class="cls-1" data-name="Path 900" transform="translate(-113.197 -32.987)"/>
        </g>
        <g id="Group_3209" data-name="Group 3209" transform="translate(14.822 2.169)">
            <path id="Path_901" d="M92.941 14.226c.016.442-.458.819-1.081.851s-1.13-.295-1.163-.737c-.016-.442.458-.819 1.081-.851s1.13.311 1.163.737z" class="cls-1" data-name="Path 901" transform="translate(-90.697 -13.487)"/>
        </g>
        <g id="Group_3210" data-name="Group 3210" transform="translate(8.517 4.462)">
            <path id="Path_902" d="M54.441 28.226c.016.442-.458.819-1.081.851s-1.13-.295-1.163-.737c-.016-.442.458-.819 1.081-.851s1.13.311 1.163.737z" class="cls-1" data-name="Path 902" transform="translate(-52.197 -27.487)"/>
        </g>
        <g id="Group_3211" data-name="Group 3211" transform="translate(6.389 7.327)">
            <path id="Path_903" d="M41.441 45.726c.016.442-.458.819-1.081.851s-1.13-.295-1.163-.737c-.016-.442.458-.819 1.081-.851s1.13.311 1.163.737z" class="cls-1" data-name="Path 903" transform="translate(-39.197 -44.987)"/>
        </g>
    </g>
</svg>
