<svg xmlns="http://www.w3.org/2000/svg" viewBox="0 0 159.755 55.393">
    <defs>
        <style>
            .cls-1{fill:#09eac7}.cls-2,.cls-3,.cls-4,.cls-5{fill-rule:evenodd}.cls-2{fill:url(#linear-gradient)}.cls-3{fill:url(#linear-gradient-2)}.cls-4{fill:url(#linear-gradient-3)}.cls-5{fill:url(#linear-gradient-4)}
        </style>
        <linearGradient id="linear-gradient" x1=".106" x2=".964" y1=".124" y2=".768" gradientUnits="objectBoundingBox">
            <stop offset="0" stop-color="#fff"/>
            <stop offset=".473" stop-color="#b5fff3"/>
            <stop offset=".749" stop-color="#79ffea"/>
            <stop offset="1" stop-color="#00a38a"/>
        </linearGradient>
        <linearGradient id="linear-gradient-2" x2=".885" y1=".5" y2=".603" gradientUnits="objectBoundingBox">
            <stop offset="0" stop-color="#77f2de"/>
            <stop offset=".323" stop-color="#3bf4d6"/>
            <stop offset=".699" stop-color="#07c7a9"/>
            <stop offset="1" stop-color="#076e5e"/>
        </linearGradient>
        <linearGradient id="linear-gradient-3" x2="1" y1=".5" y2=".5" gradientUnits="objectBoundingBox">
            <stop offset="0" stop-color="#fff"/>
            <stop offset=".323" stop-color="#d6fff9"/>
            <stop offset=".699" stop-color="#76ffe9"/>
            <stop offset="1" stop-color="#15ffdb"/>
        </linearGradient>
        <linearGradient id="linear-gradient-4" x1="-.001" x2="1" y1=".5" y2=".5" gradientUnits="objectBoundingBox">
            <stop offset="0" stop-color="#58ead3"/>
            <stop offset=".323" stop-color="#30e3c7"/>
            <stop offset=".699" stop-color="#138071"/>
            <stop offset="1" stop-color="#047b68"/>
        </linearGradient>
    </defs>
    <g id="Group_2936" data-name="Group 2936" transform="translate(-14350.941 4231.114)">
        <g id="Group_2729" data-name="Group 2729" transform="translate(14392.549 -4212.551)">
            <path id="Path_237" d="M14.183 27.179a8.153 8.153 0 0 1-2.773-3.328 9.5 9.5 0 0 1-1.11-4.992 22.4 22.4 0 0 1 2.219-9.43A17.032 17.032 0 0 1 18.9 2.5 18.383 18.383 0 0 1 28.882 0a13.5 13.5 0 0 1 3.328.277 9.831 9.831 0 0 1 3.051.832 1.281 1.281 0 0 1 .832 1.391 3.942 3.942 0 0 1-.555 1.664c-.555.555-.832.832-1.387.832h-.277a14.31 14.31 0 0 0-3.051-.555c-.832 0-1.941-.555-2.773-.555a12.221 12.221 0 0 0-7.211 1.941 13.712 13.712 0 0 0-4.439 5.267 23.778 23.778 0 0 0-1.387 7.488 7.037 7.037 0 0 0 1.109 4.437 3.48 3.48 0 0 0 3.051 1.664 4.882 4.882 0 0 0 3.605-1.664 13.182 13.182 0 0 0 2.773-5.269 86.346 86.346 0 0 0 2.5-9.984 1.525 1.525 0 0 1 .832-1.387c.277-.277.832-.277 1.664-.277q2.5 0 2.5 1.664v.554c-.555 2.219-1.109 4.437-1.664 7.211a31.637 31.637 0 0 0-.832 5.824 5.538 5.538 0 0 0 .555 2.5 1.677 1.677 0 0 0 1.664.832 2.518 2.518 0 0 0 1.941-.832l2.5-2.5c.277-.277.555-.555.832-.555s.555 0 .555.277c.277.277.277.555.277 1.109a3.232 3.232 0 0 1-.555 1.941 16.63 16.63 0 0 1-3.328 3.051 8.017 8.017 0 0 1-3.892 1.111 6.012 6.012 0 0 1-3.882-1.389 5.619 5.619 0 0 1-1.664-3.883c-1.664 3.328-4.16 5.269-7.211 5.269a6.684 6.684 0 0 1-4.16-1.107z" class="cls-1" data-name="Path 237" transform="translate(-10.3)"/>
            <path id="Path_238" d="M22.573 26.725a5.961 5.961 0 0 1-2.773-5.27 6.959 6.959 0 0 1 .555-2.773 2.518 2.518 0 0 1 1.945-.832 1.924 1.924 0 0 1 1.941 1.664v2.5a2.47 2.47 0 0 0 1.387 2.219 17.38 17.38 0 0 0 4.437.555 7.037 7.037 0 0 0 4.435-1.114 3.05 3.05 0 0 0 1.663-2.774 2.518 2.518 0 0 0-.832-1.941 4.975 4.975 0 0 0-1.941-1.387c-.832-.277-1.664-.832-3.051-1.387a29.792 29.792 0 0 1-4.16-1.941 7.867 7.867 0 0 1-2.773-2.5A5.114 5.114 0 0 1 22.3 8.143a6.812 6.812 0 0 1 1.387-4.16 9.01 9.01 0 0 1 3.605-2.773A17.931 17.931 0 0 1 32.835.1a11.5 11.5 0 0 1 4.437.832A4.834 4.834 0 0 1 40.6 2.6a5.574 5.574 0 0 1 1.11 3.6 7.422 7.422 0 0 1-.555 3.051 2.094 2.094 0 0 1-1.941 1.109 2.118 2.118 0 0 1-1.387-.555 2.118 2.118 0 0 1-.555-1.387v-2.5a2.828 2.828 0 0 0-1.387-2.219 5.915 5.915 0 0 0-3.328-.832 7.037 7.037 0 0 0-4.437 1.116 3.252 3.252 0 0 0-1.387 3.051 3.149 3.149 0 0 0 .832 2.219 4.975 4.975 0 0 0 1.941 1.387c.832.277 1.941.832 3.328 1.387A29.792 29.792 0 0 1 37 13.967a6.548 6.548 0 0 1 2.5 2.219 5.114 5.114 0 0 1 1.1 3.605 7.365 7.365 0 0 1-3.051 6.1 13.826 13.826 0 0 1-8.043 2.219 11.194 11.194 0 0 1-6.933-1.385zm2.5 9.707a1.441 1.441 0 0 1-1.109-.555c-.277-.277-.277-.555-.277-1.109s0-.832.277-1.109.555-.277 1.109-.277h2.219a5.225 5.225 0 0 0 2.219-.555 1.677 1.677 0 0 0 .832-1.664 1.525 1.525 0 0 0-.832-1.387 4.008 4.008 0 0 0-1.941-.555 2.078 2.078 0 0 1-1.387-.277c-.277-.277-.555-.555-.555-.832v-.277a1.441 1.441 0 0 1 .555-1.109c.277-.277.555-.277 1.109-.277h.832A5.869 5.869 0 0 1 32 27.557a3.973 3.973 0 0 1 1.387 3.051 5.644 5.644 0 0 1-1.664 4.16 6.524 6.524 0 0 1-4.715 1.664z" class="cls-1" data-name="Path 238" transform="translate(6.547 .177)"/>
            <path id="Path_239" d="M31.26 27.179a11.823 11.823 0 0 1-3.051-3.328 9.5 9.5 0 0 1-1.109-4.992 22.4 22.4 0 0 1 2.219-9.43A17.032 17.032 0 0 1 35.7 2.5 20.092 20.092 0 0 1 45.959 0a13.5 13.5 0 0 1 3.328.277 9.831 9.831 0 0 1 3.051.832A1.281 1.281 0 0 1 53.17 2.5a3.942 3.942 0 0 1-.555 1.664c-.555.555-.832.832-1.387.832h-.277a14.31 14.31 0 0 0-3.051-.559c-.832 0-1.664-.277-2.5-.277a12.221 12.221 0 0 0-7.206 1.94 13.712 13.712 0 0 0-4.437 5.269 15.955 15.955 0 0 0-1.387 7.211 7.037 7.037 0 0 0 1.109 4.437 3.376 3.376 0 0 0 2.773 1.664 4.882 4.882 0 0 0 3.605-1.664 13.182 13.182 0 0 0 2.773-5.269 86.347 86.347 0 0 0 2.5-9.984 1.525 1.525 0 0 1 .832-1.387c.277-.277.832-.277 1.664-.277q2.5 0 2.5 1.664v.556c-.555 2.219-1.109 4.437-1.664 7.211a31.637 31.637 0 0 0-.832 5.824 5.538 5.538 0 0 0 .555 2.5 1.677 1.677 0 0 0 1.664.832 2.518 2.518 0 0 0 1.941-.832l2.5-2.5c.277-.277.555-.555.832-.555s.555 0 .555.277c.277.277.277.555.277 1.109a3.232 3.232 0 0 1-.555 1.941 16.63 16.63 0 0 1-3.328 3.051 8.017 8.017 0 0 1-3.883 1.109A6.012 6.012 0 0 1 44.3 26.9a6.27 6.27 0 0 1-1.669-3.6c-1.664 3.328-4.16 5.269-7.211 5.269a9.235 9.235 0 0 1-4.16-1.39z" class="cls-1" data-name="Path 239" transform="translate(19.493)"/>
            <path id="Path_240" d="M42.6 25.351a2.345 2.345 0 0 1-.555-1.664 6.893 6.893 0 0 1 .277-2.219c.277-.832.277-2.219.832-3.883.555-3.051 1.109-5.547 1.387-7.766a15.917 15.917 0 0 0 .277-3.328c0-.832-.277-1.387-1.109-1.387a4.426 4.426 0 0 0-2.219.832 20.234 20.234 0 0 0-2.773 2.5 1.441 1.441 0 0 1-1.109.555.981.981 0 0 1-1.108-1.112 1.019 1.019 0 0 1 .277-.832c.277-.277.277-.555.832-1.109a12.446 12.446 0 0 1 3.605-3.051 10.283 10.283 0 0 1 3.886-1.11 3.216 3.216 0 0 1 2.773 1.109A4.237 4.237 0 0 1 48.98 5.66a3.518 3.518 0 0 1-.28 1.664 4.122 4.122 0 0 0-.277 1.664 1.215 1.215 0 0 1-.277.832c1.387-3.051 2.773-5.269 4.16-6.379A9.458 9.458 0 0 1 57.578 1.5a4.593 4.593 0 0 1 3.328 1.387 5.272 5.272 0 0 1 1.387 3.605 6.893 6.893 0 0 1-.277 2.219A14.967 14.967 0 0 1 65.9 3.164 8.308 8.308 0 0 1 70.89 1.5a4.756 4.756 0 0 1 4.992 4.992 14.31 14.31 0 0 1-.555 3.051l-1.941 8.043a7.679 7.679 0 0 0-.277 2.5 2.344 2.344 0 0 0 .555 1.664 2.34 2.34 0 0 0 1.941.555 6.527 6.527 0 0 0 2.219-.555c.832-.277 1.387-1.109 2.5-1.941a1.019 1.019 0 0 1 .832-.277c.277 0 .555 0 .555.277a1.019 1.019 0 0 1 .277.832 2.344 2.344 0 0 1-.555 1.664A13.037 13.037 0 0 1 78.1 24.8a7.677 7.677 0 0 1-3.605.832 7.057 7.057 0 0 1-4.437-1.387 4.472 4.472 0 0 1-1.664-3.605 18.71 18.71 0 0 1 .832-4.715l1.387-5.269a1.019 1.019 0 0 1 .277-.832c0-.555.277-.832.277-1.109V7.6a2.118 2.118 0 0 0-.555-1.387 2.118 2.118 0 0 0-1.387-.555A4.794 4.794 0 0 0 65.9 7.324a19.317 19.317 0 0 0-3.328 5.547 39.613 39.613 0 0 0-2.5 10.262 6.079 6.079 0 0 1-.832 2.219 3.232 3.232 0 0 1-1.941.555 2.345 2.345 0 0 1-1.664-.555 2.345 2.345 0 0 1-.555-1.664 13.609 13.609 0 0 1 .277-3.051c.277-1.387.555-2.773.832-4.437a47.93 47.93 0 0 0 1.664-8.875A2.973 2.973 0 0 0 57.3 5.66a2.118 2.118 0 0 0-1.387-.555 4.794 4.794 0 0 0-3.328 1.664 16.015 16.015 0 0 0-3.328 5.547 60.42 60.42 0 0 0-2.773 10.816c-.277.832-.277 1.664-.555 1.941a2.344 2.344 0 0 1-1.664.555 1.554 1.554 0 0 1-1.665-.277z" class="cls-1" data-name="Path 240" transform="translate(36.163 2.66)"/>
            <path id="Path_241" d="M22.847 5.092A16.468 16.468 0 0 1 25.066 6.2l2.5 1.664a.272.272 0 0 1 .277.277 4.112 4.112 0 0 0 1.941-.277 1.843 1.843 0 0 0 1.106-1.385 1.307 1.307 0 0 0-.277-1.664 23.989 23.989 0 0 0-2.773-1.941 14.864 14.864 0 0 0-3.051-1.387A12.624 12.624 0 0 0 18.964.1c-.555 1.109-1.109 2.219-1.664 3.605a18.108 18.108 0 0 1 5.547 1.387z" class="cls-1" data-name="Path 241" transform="translate(2.114 .177)"/>
            <path id="Path_242" d="M39.569 5.092A5.575 5.575 0 0 1 41.788 6.2l2.5 1.664a.272.272 0 0 1 .277.277 4.112 4.112 0 0 0 1.935-.275 1.843 1.843 0 0 0 1.109-1.387 1.307 1.307 0 0 0-.277-1.664 23.988 23.988 0 0 0-2.773-1.941 12.955 12.955 0 0 1-2.773-1.387A12.624 12.624 0 0 0 35.964.1c-.555 1.109-1.109 2.219-1.664 3.605a21.266 21.266 0 0 1 5.269 1.387z" class="cls-1" data-name="Path 242" transform="translate(32.262 .177)"/>
        </g>
        <g id="Group_2733" data-name="Group 2733" transform="translate(14350.941 -4231.114)">
            <g id="Group_2730" data-name="Group 2730">
                <path id="Path_225" d="M34.766 33.788a25.856 25.856 0 0 0 4.053-22.809c6.511 14.754 1.334 35.033-12.456 43.646a4.943 4.943 0 0 1-3.828.638c5.249 1.226 9.955-8.263 8.809-17.755-.79-8.352-15.117-17.444-22.316-20.119-1.32-.486-.653-2.414.972-1.762q3.045 1.218 3.7 1.486c1.08.435 1.465-.3.711-1.16-.29-.334-.566-.573-.7-.718-.631-.718.355-1.769 1.233-1.117 1.32.986 2.182 1.82 2.523 2.1.935.783 1.747-.218.979-.986A55.335 55.335 0 0 0 9.84 8.181c-1.2-.776-.479-2.443 1.109-1.689 10.542 5.032 19.025 14.9 23.817 27.3zM1.169 11.1c.326.2 1.74 1.051 2.037 1.233.819.493-.131 1.682-.935 1.16-.3-.2-1.6-1.044-1.979-1.3-.776-.508.174-1.515.877-1.095zm2.907-3.4c-1.124-.5-1.892.522-1.138 1.262a16.564 16.564 0 0 0 4.72 3.255c1.378.631 2.291-.3 1.262-1.334a16.014 16.014 0 0 0-4.844-3.188zM1.77.1a10.007 10.007 0 0 1 4.894 3.11c.935 1.109.16 1.921-1.247 1.356A12.34 12.34 0 0 1 .654 1.373C-.049.582.589-.266 1.77.1z" class="cls-2" data-name="Path 225" transform="translate(-.001 -.01)"/>
                <path id="Path_226" d="M260.068 534.956c-3.647-.906-5.778-5.336-1.936-7.685 3.444-2.1 8.925-3.074 10.332-6.888a7.267 7.267 0 0 0 .413-3.183c1.138 9.49-3.567 18.981-8.809 17.756z" class="cls-3" data-name="Path 226" transform="translate(-237.527 -479.703)"/>
                <path id="Path_227" d="M366.154 113.2q-1.555 4.753 3.016 6.677c.921.384 1.965.5 2.915.841 5.264 1.871 3.785 8.251.007 7.315a4.334 4.334 0 0 0 5.38-4 6.227 6.227 0 0 0-5.423-6.482c-3.879-.675-5.431-1.886-5.895-4.351z" class="cls-4" data-name="Path 227" transform="translate(-339.241 -104.993)"/>
                <path id="Path_228" d="M410.609 216.9a2.367 2.367 0 0 1 1.842 2.132c.239 3.524-5.336 3.031-3.69-1.283-1.965 1.131-1.863 3.864-.29 5.3a4.911 4.911 0 0 0 2.146 1.167c3.769.942 5.248-5.445-.008-7.316z" class="cls-5" data-name="Path 228" transform="translate(-377.758 -201.175)"/>
            </g>
            <path id="Path_244" d="M34.766 33.788a25.856 25.856 0 0 0 4.053-22.809c6.511 14.754 1.334 35.033-12.456 43.646a4.943 4.943 0 0 1-3.828.638c5.249 1.226 9.955-8.263 8.809-17.755-.79-8.352-15.117-17.444-22.316-20.119-1.32-.486-.653-2.414.972-1.762q3.045 1.218 3.7 1.486c1.08.435 1.465-.3.711-1.16-.29-.334-.566-.573-.7-.718-.631-.718.355-1.769 1.233-1.117 1.32.986 2.182 1.82 2.523 2.1.935.783 1.747-.218.979-.986A55.335 55.335 0 0 0 9.84 8.181c-1.2-.776-.479-2.443 1.109-1.689 10.542 5.032 19.025 14.9 23.817 27.3zM1.169 11.1c.326.2 1.74 1.051 2.037 1.233.819.493-.131 1.682-.935 1.16-.3-.2-1.6-1.044-1.979-1.3-.776-.508.174-1.515.877-1.095zm2.907-3.4c-1.124-.5-1.892.522-1.138 1.262a16.564 16.564 0 0 0 4.72 3.255c1.378.631 2.291-.3 1.262-1.334a16.014 16.014 0 0 0-4.844-3.188zM1.77.1a10.007 10.007 0 0 1 4.894 3.11c.935 1.109.16 1.921-1.247 1.356A12.34 12.34 0 0 1 .654 1.373C-.049.582.589-.266 1.77.1z" class="cls-2" data-name="Path 244" transform="translate(-.001 -.01)"/>
        </g>
    </g>
</svg>
