<svg xmlns="http://www.w3.org/2000/svg" id="Group_2935" data-name="Group 2935" viewBox="0 0 43.059 57.323">
    <defs>
        <style>
            .cls-1,.cls-2,.cls-3,.cls-4{fill-rule:evenodd}.cls-1{fill:url(#linear-gradient)}.cls-2{fill:url(#linear-gradient-2)}.cls-3{fill:url(#linear-gradient-3)}.cls-4{fill:url(#linear-gradient-4)}
        </style>
        <linearGradient id="linear-gradient" x1=".106" x2=".964" y1=".124" y2=".768" gradientUnits="objectBoundingBox">
            <stop offset="0" stop-color="#fff"/>
            <stop offset=".473" stop-color="#b5fff3"/>
            <stop offset=".749" stop-color="#79ffea"/>
            <stop offset="1" stop-color="#00a38a"/>
        </linearGradient>
        <linearGradient id="linear-gradient-2" x2=".885" y1=".5" y2=".603" gradientUnits="objectBoundingBox">
            <stop offset="0" stop-color="#77f2de"/>
            <stop offset=".323" stop-color="#3bf4d6"/>
            <stop offset=".699" stop-color="#07c7a9"/>
            <stop offset="1" stop-color="#076e5e"/>
        </linearGradient>
        <linearGradient id="linear-gradient-3" x2="1" y1=".5" y2=".5" gradientUnits="objectBoundingBox">
            <stop offset="0" stop-color="#fff"/>
            <stop offset=".323" stop-color="#d6fff9"/>
            <stop offset=".699" stop-color="#76ffe9"/>
            <stop offset="1" stop-color="#15ffdb"/>
        </linearGradient>
        <linearGradient id="linear-gradient-4" x1="-.001" x2="1" y1=".5" y2=".5" gradientUnits="objectBoundingBox">
            <stop offset="0" stop-color="#58ead3"/>
            <stop offset=".323" stop-color="#30e3c7"/>
            <stop offset=".699" stop-color="#138071"/>
            <stop offset="1" stop-color="#047b68"/>
        </linearGradient>
    </defs>
    <g id="Group_2730" data-name="Group 2730">
        <path id="Path_225" d="M35.978 34.966a26.757 26.757 0 0 0 4.194-23.6c6.738 15.268 1.381 36.254-12.89 45.167a5.115 5.115 0 0 1-3.962.66c5.432 1.268 10.3-8.553 9.116-18.375-.818-8.643-15.644-18.052-23.094-20.821-1.366-.5-.675-2.5 1.005-1.823q3.151 1.26 3.826 1.538c1.118.45 1.516-.308.735-1.2-.3-.345-.585-.593-.72-.743-.653-.743.368-1.831 1.275-1.155 1.366 1.02 2.258 1.883 2.611 2.176.968.81 1.808-.225 1.013-1.02a57.263 57.263 0 0 0-8.906-7.3c-1.238-.8-.5-2.528 1.148-1.748 10.911 5.202 19.689 15.414 24.649 28.244zM1.209 11.481c.338.2 1.8 1.088 2.108 1.275.848.51-.135 1.741-.968 1.2L.3 12.614c-.8-.525.18-1.568.908-1.133zm3.009-3.518C3.055 7.445 2.26 8.5 3.04 9.268a17.142 17.142 0 0 0 4.884 3.369c1.426.653 2.371-.315 1.306-1.381a16.572 16.572 0 0 0-5.012-3.293zM1.832.1A10.356 10.356 0 0 1 6.9 3.318c.968 1.148.165 1.988-1.29 1.4A12.77 12.77 0 0 1 .677 1.42C-.051.6.609-.276 1.832.1z" class="cls-1" data-name="Path 225" transform="translate(-.001 -.01)"/>
        <path id="Path_226" d="M260.206 535.575c-3.774-.938-5.98-5.522-2-7.953 3.564-2.168 9.236-3.181 10.692-7.128a7.521 7.521 0 0 0 .428-3.294c1.174 9.821-3.695 19.643-9.12 18.375z" class="cls-2" data-name="Path 226" transform="translate(-236.88 -478.396)"/>
        <path id="Path_227" d="M366.168 113.2q-1.609 4.918 3.121 6.91c.953.4 2.033.518 3.016.87 5.447 1.936 3.917 8.538.008 7.57a4.485 4.485 0 0 0 5.567-4.142 6.444 6.444 0 0 0-5.612-6.708c-4.014-.7-5.62-1.949-6.1-4.5z" class="cls-3" data-name="Path 227" transform="translate(-338.317 -104.707)"/>
        <path id="Path_228" d="M410.724 216.9a2.449 2.449 0 0 1 1.906 2.206c.248 3.646-5.522 3.136-3.819-1.328-2.033 1.171-1.928 4-.3 5.485a5.082 5.082 0 0 0 2.221 1.208c3.901.975 5.432-5.635-.008-7.571z" class="cls-4" data-name="Path 228" transform="translate(-376.729 -200.627)"/>
    </g>
    <path id="Path_244" d="M35.978 34.966a26.757 26.757 0 0 0 4.194-23.6c6.738 15.268 1.381 36.254-12.89 45.167a5.115 5.115 0 0 1-3.962.66c5.432 1.268 10.3-8.553 9.116-18.375-.818-8.643-15.644-18.052-23.094-20.821-1.366-.5-.675-2.5 1.005-1.823q3.151 1.26 3.826 1.538c1.118.45 1.516-.308.735-1.2-.3-.345-.585-.593-.72-.743-.653-.743.368-1.831 1.275-1.155 1.366 1.02 2.258 1.883 2.611 2.176.968.81 1.808-.225 1.013-1.02a57.263 57.263 0 0 0-8.906-7.3c-1.238-.8-.5-2.528 1.148-1.748 10.911 5.202 19.689 15.414 24.649 28.244zM1.209 11.481c.338.2 1.8 1.088 2.108 1.275.848.51-.135 1.741-.968 1.2L.3 12.614c-.8-.525.18-1.568.908-1.133zm3.009-3.518C3.055 7.445 2.26 8.5 3.04 9.268a17.142 17.142 0 0 0 4.884 3.369c1.426.653 2.371-.315 1.306-1.381a16.572 16.572 0 0 0-5.012-3.293zM1.832.1A10.356 10.356 0 0 1 6.9 3.318c.968 1.148.165 1.988-1.29 1.4A12.77 12.77 0 0 1 .677 1.42C-.051.6.609-.276 1.832.1z" class="cls-1" data-name="Path 244" transform="translate(-.001 -.01)"/>
</svg>
