<svg xmlns="http://www.w3.org/2000/svg" viewBox="0 0 48.239 36.449">
    <defs>
        <style>
            .cls-1{fill:none;stroke:#ea6a5a;stroke-linecap:round;stroke-linejoin:round;stroke-miterlimit:10}
        </style>
    </defs>
    <g id="Group_3216" data-name="Group 3216">
        <g id="Group_3185" data-name="Group 3185" transform="translate(.5 10.416)">
            <path id="Path_881" d="M.5 13.278v4.06a2.47 2.47 0 0 0 1.327 2.186 1.206 1.206 0 0 1 .7 1.249l-.937 13.82A1.275 1.275 0 0 0 2.842 36a1.233 1.233 0 0 0 1.249-1.405L3.233 20.7a1.325 1.325 0 0 1 .7-1.249 2.47 2.47 0 0 0 1.33-2.191V13.2" class="cls-1" data-name="Path 881" transform="translate(-.5 -13.2)"/>
            <g id="Group_3184" data-name="Group 3184" transform="translate(1.562 .078)">
                <path id="Line_233" d="M0 4.06V0" class="cls-1" data-name="Line 233" transform="translate(1.64)"/>
                <path id="Line_234" d="M0 0v4.06" class="cls-1" data-name="Line 234"/>
            </g>
        </g>
        <g id="Group_3186" data-name="Group 3186" transform="translate(44.843 9.287)">
            <path id="Path_882" d="M60.187 19.364a15.892 15.892 0 0 0-1.562-7.418.375.375 0 0 0-.7.156v13.274c0 .859 0 1.64-.078 2.5l-.547 7.65a1.275 1.275 0 0 0 1.249 1.405 1.233 1.233 0 0 0 1.251-1.405l-.625-8.9a5.247 5.247 0 0 1 .234-2.186 14.743 14.743 0 0 0 .778-5.076z" class="cls-1" data-name="Path 882" transform="translate(-57.292 -11.753)"/>
        </g>
        <g id="Group_3187" data-name="Group 3187" transform="translate(7.84 .5)">
            <circle id="Ellipse_417" cx="17.724" cy="17.724" r="17.724" class="cls-1" data-name="Ellipse 417"/>
            <path id="Path_883" d="M32.2 6.5h.312a13.079 13.079 0 1 1 0 26.157" class="cls-1" data-name="Path 883" transform="translate(-14.788 -1.815)"/>
            <path id="Path_884" d="M18.767 28a12.984 12.984 0 0 1-2.967-8.351A13.186 13.186 0 0 1 25.326 7" class="cls-1" data-name="Path 884" transform="translate(-11.193 -1.925)"/>
            <path id="Path_885" d="M33.551 28.68c-1.093 3.748-3.357 7.5-7.574 7.5s-5.231-3.592-7.574-7.5c-2.186-3.514 6.637-5.388 9.057-7.574 3.124-2.811 7.184 3.594 6.091 7.574z" class="cls-1" data-name="Path 885" transform="translate(-11.688 -4.865)"/>
            <path id="Path_886" d="M20.9 22.738a4.691 4.691 0 0 1 2.967-8.9 4.787 4.787 0 0 1 2.967 5.934" class="cls-1" data-name="Path 886" transform="translate(-11.613 -3.374)"/>
            <path id="Path_887" d="M34.2 17.7c6.012 1.718 10.853 8.979 8.511 12.571s-3.592-.937-3.826-4.685C38.494 19.5 34.2 17.7 34.2 17.7z" class="cls-1" data-name="Path 887" transform="translate(-15.226 -4.27)"/>
            <path id="Path_888" d="M26.6 12.536c5.622-2.811 14.133-.781 14.835 3.436s-3.279 1.718-6.012-.859c-4.45-4.213-8.823-2.577-8.823-2.577z" class="cls-1" data-name="Path 888" transform="translate(-13.56 -2.853)"/>
            <path id="Path_889" d="M31.323 7.362A1.562 1.562 0 1 1 29.762 5.8a1.518 1.518 0 0 1 1.561 1.562z" class="cls-1" data-name="Path 889" transform="translate(-13.911 -1.662)"/>
            <path id="Path_890" d="M24.823 31.46a1.562 1.562 0 1 1-1.561-1.56 1.518 1.518 0 0 1 1.561 1.56z" class="cls-1" data-name="Path 890" transform="translate(-12.486 -6.943)"/>
            <path id="Path_891" d="M26.6 35.726a9.558 9.558 0 0 0 6.012-3.826" class="cls-1" data-name="Path 891" transform="translate(-13.56 -7.383)"/>
        </g>
        <g id="Group_3188" data-name="Group 3188" transform="translate(22.987 21.27)">
            <path id="Line_235" d="M0 0" class="cls-1" data-name="Line 235"/>
        </g>
        <g id="Group_3189" data-name="Group 3189" transform="translate(22.285 24.705)">
            <path id="Line_236" d="M0 0" class="cls-1" data-name="Line 236"/>
        </g>
        <g id="Group_3190" data-name="Group 3190" transform="translate(27.516 23.065)">
            <path id="Line_237" d="M0 0" class="cls-1" data-name="Line 237"/>
        </g>
        <g id="Group_3191" data-name="Group 3191" transform="translate(25.174 19.318)">
            <path id="Line_238" d="M0 0" class="cls-1" data-name="Line 238"/>
        </g>
        <g id="Group_3192" data-name="Group 3192" transform="translate(17.6 15.335)">
            <path id="Line_239" d="M0 0" class="cls-1" data-name="Line 239"/>
        </g>
        <g id="Group_3193" data-name="Group 3193" transform="translate(17.756 17.678)">
            <path id="Line_240" d="M0 0" class="cls-1" data-name="Line 240"/>
        </g>
        <g id="Group_3194" data-name="Group 3194" transform="translate(20.098 14.945)">
            <path id="Line_241" d="M0 0" class="cls-1" data-name="Line 241"/>
        </g>
        <g id="Group_3195" data-name="Group 3195" transform="translate(18.537 12.759)">
            <path id="Line_242" d="M0 0" class="cls-1" data-name="Line 242"/>
        </g>
    </g>
</svg>
