<svg xmlns="http://www.w3.org/2000/svg" viewBox="0 0 40.403 31.139">
    <defs>
        <style>
            .cls-1{fill:none;stroke:#068e35;stroke-linecap:round;stroke-linejoin:round;stroke-miterlimit:10}
        </style>
    </defs>
    <g id="Group_3215" data-name="Group 3215">
        <g id="Group_3182" data-name="Group 3182" transform="translate(.5 .5)">
            <path id="Path_863" d="M36.826 19.2a17.063 17.063 0 0 1-34.126 0h34.126z" class="cls-1" data-name="Path 863" transform="translate(-1.162 -6.123)"/>
            <path id="Path_864" d="M3.717 13.808C4.346 12.549.5 12.06.5 9.332c0-2.867 1.4-2.168 2.517-3.986.839-1.259-.909-3.357 1.049-3.986 2.238-.7 2.308 2.8 3.566 3.776 2.728 2.164 4.616-1.817 7.273 2.378" class="cls-1" data-name="Path 864" transform="translate(-.5 -.731)"/>
            <path id="Path_865" d="M7.4 4.8c.42 5.175 3.986 9.72 3.986 9.72" class="cls-1" data-name="Path 865" transform="translate(-2.575 -1.793)"/>
            <path id="Path_866" d="M15.7 16.524a20.594 20.594 0 0 1 1.538-6.224" class="cls-1" data-name="Path 866" transform="translate(-5.071 -3.447)"/>
            <path id="Path_867" d="M2.8 13.2c2.378.839 4.406 4.2 4.406 4.2" class="cls-1" data-name="Path 867" transform="translate(-1.192 -4.319)"/>
            <path id="Path_868" d="M42.4 16.486c1.958-8.042 8.392-7.133 9.86-4.2s-4.406 1.538-4.406 3.846" class="cls-1" data-name="Path 868" transform="translate(-13.1 -3.41)"/>
            <g id="Group_3181" data-name="Group 3181" transform="translate(12.389 5.495)">
                <path id="Path_869" d="M23.1 15.94l3.636-6.853a5.813 5.813 0 0 0-7.9 2.168 5.553 5.553 0 0 0-.28 4.475" class="cls-1" data-name="Path 869" transform="translate(-18.217 -8.358)"/>
                <path id="Line_229" d="M0 0l.35 3.147" class="cls-1" data-name="Line 229" transform="translate(4.744 1.568)"/>
                <path id="Line_230" d="M0 0l2.448 1.259" class="cls-1" data-name="Line 230" transform="translate(1.387 4.435)"/>
            </g>
            <path id="Path_870" d="M39.3 13.227C40.7 2.248 50 .5 50 .5" class="cls-1" data-name="Path 870" transform="translate(-12.167 -.5)"/>
            <path id="Path_871" d="M42.5 13.227C43.9 2.248 50.892.5 50.892.5" class="cls-1" data-name="Path 871" transform="translate(-13.13 -.5)"/>
            <path id="Path_872" d="M35.628 14.389A13.982 13.982 0 0 1 38.774 3.2" class="cls-1" data-name="Path 872" transform="translate(-11.012 -1.312)"/>
            <path id="Path_873" d="M38.174 14.389C35.936 7.186 39.363 3.2 39.363 3.2" class="cls-1" data-name="Path 873" transform="translate(-11.601 -1.312)"/>
            <path id="Path_874" d="M27.7 6.966A3.581 3.581 0 0 1 31.266 3.4a3.46 3.46 0 0 1 3.217 2.1" class="cls-1" data-name="Path 874" transform="translate(-8.679 -1.372)"/>
            <path id="Path_875" d="M33.506 12.529a3.388 3.388 0 0 1-1.818.49A3.426 3.426 0 0 1 29.1 11.9" class="cls-1" data-name="Path 875" transform="translate(-9.1 -3.928)"/>
            <path id="Path_876" d="M30.736 18.057L27.1 15.4l5.8.49" class="cls-1" data-name="Path 876" transform="translate(-8.499 -4.981)"/>
            <path id="Path_877" d="M18.2 6.417L19.459 3.9l2.238.979V7.4" class="cls-1" data-name="Path 877" transform="translate(-5.823 -1.522)"/>
            <path id="Line_231" d="M0 0l3.357 1.119" class="cls-1" data-name="Line 231" transform="translate(15.874 3.357)"/>
            <path id="Path_878" d="M37.4 11.178L38.729 9.5l1.329 1.608" class="cls-1" data-name="Path 878" transform="translate(-11.596 -3.206)"/>
            <path id="Path_879" d="M23.1 3.868a2.168 2.168 0 0 1 4.336 0" class="cls-1" data-name="Path 879" transform="translate(-7.296 -.861)"/>
            <path id="Path_880" d="M13.24 6.537A2.169 2.169 0 0 1 17.3 5" class="cls-1" data-name="Path 880" transform="translate(-4.289 -1.432)"/>
        </g>
        <path id="Line_232" d="M0 0h30.14" class="cls-1" data-name="Line 232" transform="translate(3.996 21.339)"/>
    </g>
</svg>
