<svg xmlns="http://www.w3.org/2000/svg" viewBox="0 0 34.938 36.18">
    <defs>
        <style>
            .cls-1{fill:none;stroke:#a08f07;stroke-linecap:round;stroke-linejoin:round;stroke-miterlimit:10}
        </style>
    </defs>
    <g id="Group_3217" data-name="Group 3217" transform="translate(.099 -.018)">
        <g id="Group_3199" data-name="Group 3199" transform="translate(11.953 .529)">
            <g id="Group_3198" data-name="Group 3198">
                <g id="Group_3197" data-name="Group 3197">
                    <path id="Path_892" d="M21.663 2.665a1.474 1.474 0 0 0-1.947.626 1.767 1.767 0 0 0 .765 2.434 2.284 2.284 0 0 0 3.06-.974A2.867 2.867 0 0 0 22.289.926a3.571 3.571 0 0 0-4.8 1.53 4.507 4.507 0 0 0 1.947 5.981c4.938 2.782 1.878 6.329 1.878 6.329" class="cls-1" data-name="Path 892" transform="translate(-17.013 -.529)"/>
                    <path id="Path_893" d="M26.8 18.159a4.572 4.572 0 0 0 .835-6.259" class="cls-1" data-name="Path 893" transform="translate(-19.994 -3.992)"/>
                </g>
            </g>
        </g>
        <g id="Group_3201" data-name="Group 3201" transform="translate(.4 18.73)">
            <g id="Group_3200" data-name="Group 3200">
                <path id="Path_894" d="M34.338 26.7A16.969 16.969 0 0 1 .4 26.7z" class="cls-1" data-name="Path 894" transform="translate(-.4 -26.7)"/>
            </g>
            <path id="Line_243" d="M0 0h29.974" class="cls-1" data-name="Line 243" transform="translate(1.947 7.789)"/>
        </g>
    </g>
</svg>
